<svg width="24" height="25" viewBox="0 0 24 25" fill="none" xmlns="http://www.w3.org/2000/svg">
<g clip-path="url(#clip0_34_184)">
<path d="M4.5 16.5C4.776 16.5 5 16.724 5 17V20C5 20.276 4.776 20.5 4.5 20.5C4.224 20.5 4 20.276 4 20V17C4 16.724 4.224 16.5 4.5 16.5ZM7 12V20C7 20.276 7.224 20.5 7.5 20.5C7.776 20.5 8 20.276 8 20V12C8 11.724 7.776 11.5 7.5 11.5C7.224 11.5 7 11.724 7 12ZM10 14V20C10 20.276 10.224 20.5 10.5 20.5C10.776 20.5 11 20.276 11 20V14C11 13.724 10.776 13.5 10.5 13.5C10.224 13.5 10 13.724 10 14ZM24 15.25V22.833C24 23.984 21.991 24.5 20 24.5C18.009 24.5 16 23.985 16 22.833V15.25C16 14 18.084 13.527 20 13.5C21.917 13.527 24 14 24 15.25ZM23.002 18.983C22.231 19.33 21.119 19.5 20 19.5C18.881 19.5 17.77 19.331 17 18.984V20.312C17.117 20.517 18.143 21 20 21C21.881 21 22.908 20.504 23.003 20.305L23.002 18.983ZM22.999 16.445C22.217 16.817 21.09 17 19.998 17C18.906 17 17.78 16.817 16.998 16.446V17.812C17.115 18.017 18.141 18.5 19.998 18.5C21.874 18.5 22.9 18.007 23 17.806L22.999 16.445ZM16.999 15.25C17.087 15.465 18.102 16 19.997 16C21.919 16 22.935 15.45 22.998 15.241C22.936 15.05 21.919 14.5 19.997 14.5C18.101 14.5 17.087 15.035 16.999 15.25ZM23.002 22.803V21.482C22.231 21.83 21.118 22 19.997 22C18.876 22 17.767 21.831 16.997 21.484V22.833C17.083 23 18.111 23.5 19.997 23.5C21.883 23.5 22.911 23.001 23.002 22.803ZM13.997 24C13.997 24.276 13.773 24.5 13.497 24.5H4.5C2.019 24.5 0 22.481 0 20V5C0 2.519 2.019 0.5 4.5 0.5H10.015C11.75 0.5 13.383 1.176 14.612 2.404L18.096 5.889C19.324 7.116 20 8.748 20 10.485V11C20 11.276 19.776 11.5 19.5 11.5C19.224 11.5 19 11.276 19 11V10.485C19 10.15 18.962 9.822 18.904 9.5H13.5C12.121 9.5 11 8.378 11 7V1.596C10.677 1.538 10.349 1.5 10.015 1.5H4.5C2.57 1.5 1 3.07 1 5V20C1 21.93 2.57 23.5 4.5 23.5H13.5C13.776 23.5 14 23.724 14 24H13.997ZM13.901 3.111C13.35 2.561 12.701 2.152 11.997 1.88V7C11.997 7.827 12.67 8.5 13.497 8.5H18.618C18.345 7.796 17.936 7.146 17.386 6.596L13.902 3.111H13.901Z" fill="#767676"/>
</g>
<defs>
<clipPath id="clip0_34_184">
<rect width="24" height="24" fill="white" transform="translate(0 0.5)"/>
</clipPath>
</defs>
</svg>
