<svg width="20" height="20" viewBox="0 0 20 20" fill="none" xmlns="http://www.w3.org/2000/svg">
<path d="M9.58333 16.9996C8.78667 18.8221 6.9875 19.9996 5 19.9996C3.755 19.9996 2.58417 19.5371 1.68667 18.7446L1.02417 19.4071C0.670833 19.7862 0 19.5721 0 18.9829V16.4329C0 16.1012 0.268333 15.8329 0.6 15.8329H3.15C3.66833 15.8154 3.95333 16.5029 3.57417 16.8571L2.8725 17.5587C3.46 18.0462 4.20583 18.3329 5 18.3329C6.32583 18.3329 7.525 17.5479 8.05583 16.3329C8.24083 15.9104 8.73167 15.7179 9.15333 15.9029C9.575 16.0871 9.7675 16.5787 9.58333 16.9996ZM9.62917 10.4612C9.40417 10.3687 9.14667 10.4196 8.975 10.5912L8.3125 11.2537C7.41583 10.4612 6.245 9.99872 4.99917 9.99872C3.01083 9.99872 1.21167 11.1762 0.415833 12.9987C0.231667 13.4204 0.424167 13.9121 0.845833 14.0954C1.2675 14.2812 1.75833 14.0879 1.94333 13.6654C2.47417 12.4504 3.67417 11.6654 4.99917 11.6654C5.79333 11.6654 6.53917 11.9521 7.12667 12.4396L6.425 13.1412C6.04583 13.4954 6.28083 14.1654 6.84917 14.1654H9.39917C9.73083 14.1654 9.99917 13.8971 9.99917 13.5654V11.0154C9.99917 10.7729 9.85333 10.5537 9.62917 10.4612ZM16.6658 9.99872C16.6658 9.30873 16.1058 8.74872 15.4158 8.74872C14.7258 8.74872 14.1658 9.30873 14.1658 9.99872C14.1658 10.6887 14.7258 11.2487 15.4158 11.2487C16.1058 11.2487 16.6658 10.6887 16.6658 9.99872ZM17.4992 3.33206H4.16667C3.45417 3.33206 2.79 3.01456 2.32 2.49539C2.7775 1.98956 3.4325 1.66539 4.16667 1.66539H19.1667C19.6267 1.66539 20 1.29289 20 0.832058C20 0.371225 19.6267 -0.00127498 19.1667 -0.00127498H4.16667C1.85333 -0.00544165 0.0166667 1.91873 0 4.16622V9.16623C0 9.62706 0.373333 9.99956 0.833333 9.99956C1.29333 9.99956 1.66667 9.62706 1.66667 9.16623V4.16622C1.66667 4.16622 1.66667 4.16289 1.66667 4.16123C2.37833 4.69456 3.2525 4.99956 4.16583 4.99956H17.5C17.9592 4.99956 18.3333 5.37289 18.3333 5.83289V14.1662C18.3333 14.6262 17.9592 14.9996 17.5 14.9996H12.5C12.04 14.9996 11.6667 15.3721 11.6667 15.8329C11.6667 16.2937 12.04 16.6662 12.5 16.6662H17.5C18.8783 16.6662 20 15.5446 20 14.1662V5.83289C20 4.45456 18.8783 3.33289 17.5 3.33289L17.4992 3.33206Z" fill="white"/>
</svg>
