<svg width="24" height="25" viewBox="0 0 24 25" fill="none" xmlns="http://www.w3.org/2000/svg">
<path d="M10.66 11.16C10.3033 11.5149 10.1019 11.9968 10.1 12.5C10.1 13.0039 10.3002 13.4872 10.6565 13.8435C11.0128 14.1999 11.4961 14.4 12 14.4C12.5032 14.3982 12.9851 14.1968 13.34 13.84" stroke="#767676" stroke-width="1.5" stroke-linecap="round" stroke-linejoin="round"/>
<path d="M12 6.80005C10.8726 6.80005 9.7706 7.13435 8.83324 7.76067C7.89588 8.387 7.1653 9.27721 6.73388 10.3188C6.30246 11.3603 6.18958 12.5064 6.40951 13.6121C6.62945 14.7178 7.17232 15.7334 7.96948 16.5306C8.76664 17.3277 9.78228 17.8706 10.888 18.0905C11.9937 18.3105 13.1397 18.1976 14.1813 17.7662C15.2228 17.3347 16.113 16.6042 16.7394 15.6668C17.3657 14.7294 17.7 13.6274 17.7 12.5" stroke="#767676" stroke-width="1.5" stroke-linecap="round" stroke-linejoin="round"/>
<path d="M12 3C10.1211 3 8.28435 3.55717 6.72209 4.60104C5.15982 5.64491 3.94218 7.12861 3.22315 8.86451C2.50412 10.6004 2.31598 12.5105 2.68254 14.3534C3.0491 16.1962 3.95389 17.8889 5.28249 19.2175C6.61109 20.5461 8.30383 21.4509 10.1466 21.8175C11.9895 22.184 13.8996 21.9959 15.6355 21.2769C17.3714 20.5578 18.8551 19.3402 19.899 17.7779C20.9428 16.2157 21.5 14.3789 21.5 12.5M15.525 8.976L12.95 11.55" stroke="#767676" stroke-width="1.5" stroke-linecap="round" stroke-linejoin="round"/>
<path d="M20.94 6.34397L17.7 6.79997L18.156 3.55997C18.1594 3.52234 18.1514 3.48456 18.1332 3.45147C18.1149 3.41838 18.0873 3.39147 18.0537 3.37419C18.0201 3.35691 17.9821 3.35004 17.9446 3.35445C17.907 3.35887 17.8717 3.37437 17.843 3.39897L15.695 5.53597C15.4744 5.75819 15.3121 6.0315 15.2226 6.33158C15.1331 6.63166 15.1192 6.9492 15.182 7.25597L15.524 8.97597L17.244 9.31697C17.5508 9.37982 17.8683 9.36588 18.1684 9.27638C18.4685 9.18688 18.7418 9.0246 18.964 8.80397L21.1 6.65697C21.1247 6.62824 21.1402 6.59278 21.1446 6.55515C21.149 6.51752 21.1421 6.47944 21.1247 6.44579C21.1072 6.41215 21.0802 6.38447 21.0469 6.36633C21.0136 6.34819 20.9757 6.3404 20.938 6.34397" stroke="#767676" stroke-width="1.5" stroke-linecap="round" stroke-linejoin="round"/>
</svg>
