<svg width="25" height="24" viewBox="0 0 25 24" fill="none" xmlns="http://www.w3.org/2000/svg">
<path fill-rule="evenodd" clip-rule="evenodd" d="M14.886 12.3335C14.7481 11.9435 14.4927 11.6058 14.155 11.367C13.8172 11.1281 13.4137 10.9999 13 11V10.5H12V11C11.4696 11 10.9609 11.2107 10.5858 11.5858C10.2107 11.9609 10 12.4696 10 13C10 13.5304 10.2107 14.0391 10.5858 14.4142C10.9609 14.7893 11.4696 15 12 15V17C11.565 17 11.1945 16.7225 11.0565 16.3335C11.036 16.2699 11.003 16.211 10.9594 16.1603C10.9157 16.1097 10.8624 16.0683 10.8025 16.0386C10.7426 16.0089 10.6773 15.9916 10.6106 15.9875C10.5439 15.9835 10.477 15.9929 10.414 16.0152C10.3509 16.0375 10.293 16.0721 10.2436 16.1172C10.1942 16.1622 10.1543 16.2167 10.1264 16.2775C10.0984 16.3382 10.0829 16.4039 10.0808 16.4707C10.0787 16.5376 10.0899 16.6041 10.114 16.6665C10.2519 17.0565 10.5073 17.3942 10.845 17.633C11.1828 17.8719 11.5863 18.0001 12 18V18.5H13V18C13.5304 18 14.0391 17.7893 14.4142 17.4142C14.7893 17.0391 15 16.5304 15 16C15 15.4696 14.7893 14.9609 14.4142 14.5858C14.0391 14.2107 13.5304 14 13 14V12C13.2068 11.9999 13.4085 12.064 13.5774 12.1834C13.7463 12.3027 13.874 12.4715 13.943 12.6665C13.9872 12.7915 14.0792 12.8939 14.1988 12.9511C14.2581 12.9795 14.3223 12.9958 14.3879 12.9993C14.4535 13.0028 14.5191 12.9934 14.581 12.9715C14.6429 12.9496 14.6999 12.9158 14.7488 12.8719C14.7976 12.828 14.8373 12.7749 14.8656 12.7157C14.894 12.6564 14.9103 12.5922 14.9138 12.5266C14.9173 12.461 14.9079 12.3954 14.886 12.3335ZM12 12C11.7348 12 11.4804 12.1054 11.2929 12.2929C11.1054 12.4804 11 12.7348 11 13C11 13.2652 11.1054 13.5196 11.2929 13.7071C11.4804 13.8946 11.7348 14 12 14V12ZM13 17C13.2652 17 13.5196 16.8946 13.7071 16.7071C13.8946 16.5196 14 16.2652 14 16C14 15.7348 13.8946 15.4804 13.7071 15.2929C13.5196 15.1054 13.2652 15 13 15V17Z" fill="#14684E"/>
<path fill-rule="evenodd" clip-rule="evenodd" d="M7.07649 4.3105C8.30349 3.71 10.3165 3 12.5195 3C14.6765 3 16.6365 3.6805 17.857 4.273L17.926 4.3065C18.294 4.4885 18.591 4.6605 18.8 4.8L16.953 7.5C21.211 11.853 24.5 20.9985 12.5195 20.9985C0.53899 20.9985 3.73949 12.019 8.03449 7.5L6.19949 4.8C6.34099 4.7075 6.52049 4.6 6.73449 4.486C6.84049 4.429 6.95449 4.37017 7.07649 4.3105ZM15.766 7.4645L17.2445 5.303C15.8695 5.402 14.2335 5.725 12.6585 6.181C11.5335 6.506 10.2835 6.4565 9.12599 6.243C8.83429 6.18899 8.54461 6.12462 8.25749 6.05L9.21749 7.4635C11.275 8.196 13.708 8.196 15.766 7.4645ZM8.63999 8.315C11.0475 9.245 13.941 9.245 16.3485 8.314C17.3532 9.37356 18.1938 10.5774 18.8425 11.8855C19.5185 13.2645 19.8865 14.643 19.8265 15.831C19.7685 16.9775 19.3175 17.957 18.2875 18.685C17.214 19.4435 15.4085 19.9985 12.519 19.9985C9.62649 19.9985 7.81249 19.453 6.72899 18.703C5.69149 17.9845 5.23599 17.018 5.17149 15.887C5.10399 14.712 5.46399 13.3405 6.13749 11.952C6.77999 10.628 7.67649 9.3535 8.63999 8.315ZM8.06499 4.958C8.46499 5.077 8.88299 5.1805 9.30699 5.259C10.382 5.457 11.46 5.486 12.38 5.2195C13.4521 4.90705 14.5425 4.66141 15.645 4.484C14.725 4.207 13.649 4 12.519 4C10.7965 4 9.18999 4.4805 8.06499 4.958Z" fill="#14684E"/>
</svg>
