<svg width="16" height="16" viewBox="0 0 16 16" fill="none" xmlns="http://www.w3.org/2000/svg">
<path d="M7.25251 2.93653C5.28418 4.19686 4.30001 5.71469 4.30001 7.49003C4.30001 8.04236 4.39618 8.31853 4.58851 8.31853L4.78651 8.26503C4.94218 8.20503 5.06818 8.17503 5.16451 8.17503C5.72851 8.17503 6.19934 8.38003 6.57701 8.79003C6.95468 9.20003 7.14368 9.70603 7.14401 10.308C7.14368 10.8867 6.93951 11.3779 6.53151 11.7815C6.12351 12.1849 5.63151 12.3865 5.05551 12.3865C4.25151 12.3865 3.58818 12.056 3.06551 11.395C2.54418 10.735 2.28351 9.90553 2.28351 8.90653C2.28318 7.77653 2.50484 6.74269 2.94851 5.80503C3.39318 4.86769 4.07118 4.02019 4.98251 3.26253C5.89451 2.50553 6.47651 2.12686 6.72851 2.12653C6.89651 2.12653 7.03451 2.20753 7.14251 2.36953C7.25051 2.53119 7.30451 2.67203 7.30451 2.79203L7.25101 2.93603L7.25251 2.93653ZM13.7325 2.93653C11.7642 4.19653 10.7802 5.71453 10.7805 7.49053C10.7805 8.04286 10.8767 8.31903 11.069 8.31903L11.267 8.26553C11.4227 8.20553 11.5487 8.17553 11.645 8.17553C12.197 8.17553 12.6648 8.38053 13.0485 8.79053C13.4328 9.19986 13.6248 9.70586 13.6245 10.3085C13.6242 10.8872 13.42 11.3784 13.012 11.782C12.604 12.1854 12.112 12.387 11.536 12.387C10.732 12.387 10.0687 12.0565 9.54601 11.3955C9.02467 10.7355 8.76401 9.90603 8.76401 8.90703C8.76334 7.76503 8.98834 6.72236 9.43901 5.77903C9.88901 4.83536 10.5668 3.99086 11.4725 3.24553C12.3798 2.49986 12.959 2.12703 13.21 2.12703C13.3783 2.12703 13.5167 2.20803 13.625 2.37003C13.7327 2.53203 13.7865 2.67303 13.7865 2.79303L13.7325 2.93653Z" fill="white"/>
</svg>
