<svg width="25" height="25" viewBox="0 0 25 25" fill="none" xmlns="http://www.w3.org/2000/svg">
<g clip-path="url(#clip0_34_190)">
<path d="M12.5 12.5C13.6867 12.5 14.8467 12.1481 15.8334 11.4888C16.8201 10.8295 17.5892 9.89246 18.0433 8.7961C18.4974 7.69975 18.6162 6.49335 18.3847 5.32946C18.1532 4.16558 17.5818 3.09648 16.7426 2.25736C15.9035 1.41825 14.8344 0.846802 13.6705 0.615291C12.5067 0.38378 11.3003 0.5026 10.2039 0.956726C9.10754 1.41085 8.17047 2.17989 7.51118 3.16658C6.85189 4.15328 6.5 5.31331 6.5 6.5C6.50159 8.09081 7.13424 9.61602 8.25911 10.7409C9.38399 11.8658 10.9092 12.4984 12.5 12.5ZM12.5 2.5C13.2911 2.5 14.0645 2.7346 14.7223 3.17412C15.3801 3.61365 15.8928 4.23836 16.1955 4.96927C16.4983 5.70017 16.5775 6.50444 16.4231 7.28036C16.2688 8.05629 15.8878 8.76902 15.3284 9.32843C14.769 9.88784 14.0563 10.2688 13.2804 10.4231C12.5044 10.5775 11.7002 10.4983 10.9693 10.1955C10.2384 9.89277 9.61365 9.38008 9.17412 8.72228C8.7346 8.06449 8.5 7.29113 8.5 6.5C8.5 5.43914 8.92143 4.42172 9.67157 3.67158C10.4217 2.92143 11.4391 2.5 12.5 2.5Z" fill="#767676"/>
<path d="M12.5 14.5C10.1139 14.5026 7.82622 15.4517 6.13896 17.139C4.45171 18.8262 3.50265 21.1139 3.5 23.5C3.5 23.7652 3.60536 24.0196 3.79289 24.2071C3.98043 24.3946 4.23478 24.5 4.5 24.5C4.76522 24.5 5.01957 24.3946 5.20711 24.2071C5.39464 24.0196 5.5 23.7652 5.5 23.5C5.5 21.6435 6.2375 19.863 7.55025 18.5503C8.86301 17.2375 10.6435 16.5 12.5 16.5C14.3565 16.5 16.137 17.2375 17.4497 18.5503C18.7625 19.863 19.5 21.6435 19.5 23.5C19.5 23.7652 19.6054 24.0196 19.7929 24.2071C19.9804 24.3946 20.2348 24.5 20.5 24.5C20.7652 24.5 21.0196 24.3946 21.2071 24.2071C21.3946 24.0196 21.5 23.7652 21.5 23.5C21.4974 21.1139 20.5483 18.8262 18.861 17.139C17.1738 15.4517 14.8861 14.5026 12.5 14.5Z" fill="#767676"/>
</g>
<defs>
<clipPath id="clip0_34_190">
<rect width="24" height="24" fill="white" transform="translate(0.5 0.5)"/>
</clipPath>
</defs>
</svg>
