<svg width="162" height="162" viewBox="0 0 162 162" fill="none" xmlns="http://www.w3.org/2000/svg">
<path d="M80.84 159.68C124.382 159.68 159.68 124.382 159.68 80.84C159.68 37.2979 124.382 2 80.84 2C37.2979 2 2 37.2979 2 80.84C2 124.382 37.2979 159.68 80.84 159.68Z" fill="#14684E"/>
<path d="M45.3799 151.27C72.9899 101.86 55.6099 68.22 55.6099 68.22C34.8899 69.7 18.8199 83.99 18.8199 83.99C45.0999 108.17 35.2499 145.17 35.2499 145.17C35.2499 145.17 42.5099 150.22 45.3799 151.27Z" fill="#38AF79" stroke="#14684E" stroke-width="4" stroke-miterlimit="10"/>
<path d="M99.68 48.52C75.42 41.43 51.41 51.41 51.41 51.41C71.38 117.64 45.39 151.28 45.39 151.28C45.39 151.28 60.88 159.69 84 159.69C84 159.69 118.53 78.23 99.69 48.53L99.68 48.52Z" fill="#57D6A1" stroke="#14684E" stroke-width="4" stroke-miterlimit="10"/>
<path d="M154.26 52.06C132.35 24.08 95.56 27.23 95.56 27.23C115.53 124.99 54.54 155.18 54.54 155.18C54.54 155.18 91.36 169.14 123.11 147.41C123.11 147.41 176.51 113.43 154.27 52.06H154.26Z" fill="#BEFEA8" stroke="#14684E" stroke-width="4" stroke-miterlimit="10"/>
<path d="M80.84 159.68C124.382 159.68 159.68 124.382 159.68 80.84C159.68 37.2979 124.382 2 80.84 2C37.2979 2 2 37.2979 2 80.84C2 124.382 37.2979 159.68 80.84 159.68Z" stroke="#14684E" stroke-width="4" stroke-miterlimit="10"/>
<path d="M65.0699 157.58C71.0099 153.62 76.6299 147.87 81.3599 142.02" stroke="#14684E" stroke-width="4" stroke-miterlimit="10"/>
<path d="M158.63 68.23C146.68 50.3 130.25 42.12 117.18 38.09C116.04 43.61 111.73 47.18 106.12 48.07C109.88 88.44 99.27 115.52 88.73 131.86C86.67 135.05 84.18 138.56 81.37 142.02" stroke="#14684E" stroke-width="4" stroke-miterlimit="10"/>
<path d="M125.93 145.53C123.75 145.61 121.57 145.32 119.48 144.63" stroke="#14684E" stroke-width="4" stroke-miterlimit="10"/>
<path d="M119.48 144.62C118.59 144.32 117.71 143.96 116.86 143.51C106.68 138.22 103.49 124.2 109.73 112.2C115.97 100.2 129.28 94.75 139.45 100.04C146 103.45 149.66 110.47 149.76 118.24" stroke="#14684E" stroke-width="4" stroke-miterlimit="10"/>
<path d="M99.33 55.74C95.03 54.74 85.87 53.34 81.08 53.34C77.36 53.34 73.8399 53.65 70.6299 54.11C70.6399 54.34 70.66 54.56 70.66 54.79C70.66 59.86 67.2599 64.14 62.6199 65.47C71.5599 107.49 63.5 133.64 52.2 153.97" stroke="#14684E" stroke-width="4" stroke-miterlimit="10"/>
<path d="M56.93 75.02C48.25 76.11 39.57 79.63 35.19 81.93C35.72 82.84 36.03 83.89 36.03 85.02C36.03 87.05 35.04 88.84 33.53 89.96C45.02 107.27 46.21 127.28 41.62 148.78" stroke="#14684E" stroke-width="4" stroke-miterlimit="10"/>
</svg>
